<svg width="327" height="312" viewBox="0 0 327 312" fill="none" xmlns="http://www.w3.org/2000/svg">
<rect width="327" height="312" fill="white"/>
<mask id="mask0_8_103" style="mask-type:alpha" maskUnits="userSpaceOnUse" x="19" y="11" width="290" height="290">
<circle cx="164" cy="156" r="144.5" fill="#D9D9D9" stroke="#71727A"/>
</mask>
<g mask="url(#mask0_8_103)">
<ellipse cx="193.5" cy="73.5" rx="145.5" ry="149.5" fill="#FFD761"/>
<ellipse cx="275" cy="242" rx="145" ry="86" fill="#FF616D"/>
<circle cx="42" cy="103" r="116" fill="#B086FF"/>
<circle cx="32" cy="196" r="116" fill="#298267"/>
<circle cx="69" cy="290" r="116" fill="#2897FF"/>
<circle cx="164" cy="156" r="72" fill="white"/>
<path d="M50.1476 124.578C48.649 124.259 47.1741 125.206 46.8588 126.69L44.5718 137.45C44.2564 138.933 45.2184 140.398 46.7171 140.717L65.7366 144.76C67.2352 145.078 68.7101 144.131 69.0254 142.647L71.3125 131.888C71.6278 130.404 70.6658 128.939 69.1672 128.62L50.1476 124.578ZM50.0059 138.605L47.2888 138.027L47.8606 135.337C49.3592 135.656 50.3213 137.121 50.0059 138.605ZM49.0041 129.957L49.5759 127.267L52.2929 127.845C51.9776 129.329 50.5027 130.276 49.0041 129.957ZM63.5913 141.492C63.9067 140.009 65.3815 139.061 66.8801 139.38L66.3084 142.07L63.5913 141.492ZM68.0236 134C66.525 133.682 65.563 132.216 65.8783 130.733L68.5954 131.31L68.0236 134ZM58.7998 130.634C59.8807 130.864 60.827 131.509 61.4305 132.428C62.0339 133.347 62.2452 134.465 62.0177 135.535C61.7903 136.605 61.1427 137.54 60.2176 138.134C59.2924 138.728 58.1654 138.933 57.0845 138.703C56.0036 138.474 55.0573 137.828 54.4538 136.909C53.8503 135.99 53.639 134.872 53.8665 133.802C54.094 132.732 54.7415 131.797 55.6667 131.203C56.5918 130.609 57.7188 130.404 58.7998 130.634Z" fill="white"/>
<path d="M95.8348 54.6421C96.1123 54.1114 96.7461 53.8665 97.3123 54.0706L102 55.7628L106.687 54.0706C107.254 53.8665 107.887 54.1114 108.165 54.6421L111.12 60.3161C112.2 62.3868 111.506 64.8546 109.676 66.1275L110.854 69.3263L112.391 68.7696C113.014 68.547 113.704 68.8624 113.929 69.4784C114.154 70.0944 113.835 70.7773 113.212 70.9999L110.546 71.9611L107.88 72.9259C107.257 73.1523 106.567 72.8331 106.342 72.2171C106.117 71.6011 106.436 70.9183 107.059 70.6956L108.596 70.139L107.422 66.9402C105.195 67.1331 103.065 65.6784 102.547 63.4073L102 61.0064L101.452 63.4073C100.935 65.6821 98.8048 67.1331 96.5773 66.9402L95.4036 70.139L96.9411 70.6956C97.5636 70.9183 97.8861 71.6011 97.6573 72.2171C97.4286 72.8331 96.7423 73.1523 96.1198 72.9259L93.4573 71.9648L90.7911 71.0036C90.1686 70.7773 89.8461 70.0982 90.0748 69.4821C90.3036 68.8661 90.9898 68.547 91.6123 68.7734L93.1498 69.33L94.3236 66.1312C92.4936 64.8546 91.8036 62.3868 92.8836 60.3161L95.8348 54.6421ZM97.4848 56.6609L96.4648 58.6202L99.8098 59.8263L100.301 57.6777L97.4848 56.6609ZM106.519 56.6609L103.702 57.6777L104.194 59.8263L107.539 58.6202L106.519 56.6609Z" fill="white"/>
<path d="M90.6506 230.72C91.0227 230.321 91.6508 230.307 92.0596 230.688L93.458 231.992C94.1341 232.622 94.3754 233.565 94.118 234.402L106.75 246.181C107.558 246.935 107.449 248.235 106.526 248.799L101.006 252.193C99.8661 252.891 98.3776 252.731 97.3788 251.8L88.5121 243.531L87.8808 244.541C87.6324 244.943 87.7073 245.473 88.0607 245.802L96.9212 254.065C97.33 254.446 97.3595 255.074 96.9875 255.473C96.6154 255.872 95.9873 255.886 95.5785 255.505L86.718 247.242C85.6546 246.251 85.43 244.661 86.1815 243.461L92.1762 233.853C92.261 233.719 92.2351 233.543 92.1153 233.432L90.7169 232.128C90.3081 231.747 90.2786 231.119 90.6506 230.72ZM82.2766 247.587C82.4529 247.398 82.6657 247.246 82.9027 247.141C83.1397 247.035 83.3964 246.978 83.6581 246.972C83.9198 246.966 84.1813 247.011 84.4277 247.106C84.6742 247.201 84.9008 247.342 85.0945 247.523C85.2882 247.703 85.4453 247.92 85.5568 248.159C85.6683 248.398 85.7321 248.656 85.7444 248.917C85.7567 249.179 85.7173 249.439 85.6286 249.683C85.5398 249.926 85.4034 250.149 85.227 250.338C85.0507 250.527 84.8379 250.679 84.6009 250.785C84.3639 250.89 84.1072 250.948 83.8455 250.954C83.5839 250.96 83.3223 250.914 83.0759 250.819C82.8294 250.725 82.6029 250.583 82.4091 250.403C82.2154 250.222 82.0583 250.006 81.9468 249.766C81.8353 249.527 81.7716 249.27 81.7593 249.008C81.7469 248.747 81.7863 248.487 81.8751 248.243C81.9638 247.999 82.1003 247.776 82.2766 247.587ZM93.9458 255.777C94.3371 256.142 94.5708 256.643 94.5957 257.171C94.6205 257.699 94.4344 258.21 94.0783 258.592C93.7222 258.974 93.2253 259.195 92.6968 259.208C92.1684 259.22 91.6517 259.021 91.2604 258.656C90.8692 258.292 90.6354 257.79 90.6106 257.262C90.5857 256.734 90.7718 256.223 91.1279 255.841C91.484 255.459 91.9809 255.238 92.5094 255.226C93.0379 255.214 93.5545 255.412 93.9458 255.777Z" fill="white"/>
<path d="M241.929 85.0078C241.411 85.5825 240.542 85.6143 240.015 85.1402L239.024 84.2478L234.44 89.3818C234.363 89.468 234.279 89.5487 234.192 89.6265L233.726 90.1437C233.091 90.8492 232.022 90.9215 231.338 90.3052L230.842 89.859C230.808 89.8283 230.774 89.7977 230.743 89.7638C230.697 89.7279 230.653 89.6889 230.61 89.6498L229.606 88.7403L228.863 88.071C228.178 87.4547 228.138 86.384 228.774 85.6785L229.464 84.9123L231.303 82.869C231.812 82.3039 231.78 81.4486 231.232 80.955L229.25 79.1702C228.702 78.6765 227.848 78.7343 227.339 79.2994L225.499 81.3426L224.809 82.1088C224.174 82.8144 223.105 82.8867 222.421 82.2704L221.677 81.6011L220.689 80.7115C220.643 80.6696 220.599 80.6246 220.556 80.5796C220.516 80.5493 220.476 80.519 220.438 80.4856L219.943 80.0394C219.258 79.423 219.218 78.3524 219.854 77.6468L223.073 74.0711C223.099 74.0424 223.128 74.0105 223.157 73.9845L225.16 71.7593L224.169 70.8669C223.612 70.3649 223.581 69.5275 224.101 68.9497C224.36 68.6623 224.683 68.4906 225.101 68.4623L239.461 68.4777C239.879 68.4495 240.155 68.6406 240.372 68.8358C240.589 69.0311 240.779 69.318 240.821 69.645L242.278 83.9348C242.325 84.3814 242.219 84.7484 241.929 85.0078Z" fill="white"/>
<path d="M232.013 226.832L233.984 226.695L234.238 230.329L230.022 230.623L230.959 227.671C231.106 227.2 231.523 226.867 232.013 226.832ZM236.033 230.203L235.779 226.569L238.816 226.357C239.179 226.331 239.535 226.474 239.783 226.746L242.519 229.75L236.033 230.203ZM245.618 229.571L241.547 225.101C240.806 224.285 239.739 223.858 238.647 223.934L231.843 224.41C230.373 224.513 229.116 225.51 228.67 226.925L227.39 230.975C226.524 231.393 225.957 232.311 226.029 233.337L226.325 237.577C226.372 238.247 226.945 238.751 227.607 238.704L228.853 238.617C229.257 240.316 230.826 241.522 232.606 241.398C234.387 241.273 235.773 239.86 235.937 238.122L240.825 237.78C241.23 239.479 242.799 240.685 244.579 240.561C246.359 240.436 247.745 239.023 247.909 237.285L249.155 237.198C249.817 237.151 250.314 236.573 250.267 235.903L250.14 234.086C249.967 231.618 248 229.709 245.622 229.571L245.618 229.571ZM242.584 236.44C242.645 236.206 242.75 235.988 242.895 235.796C243.039 235.604 243.22 235.444 243.427 235.324C243.633 235.203 243.862 235.126 244.098 235.096C244.335 235.066 244.575 235.083 244.805 235.148C245.034 235.213 245.249 235.323 245.437 235.472C245.625 235.621 245.781 235.807 245.897 236.018C246.014 236.228 246.087 236.461 246.114 236.7C246.141 236.94 246.121 237.183 246.054 237.414C245.994 237.648 245.888 237.867 245.744 238.058C245.599 238.25 245.418 238.41 245.212 238.531C245.005 238.651 244.777 238.728 244.54 238.758C244.304 238.788 244.064 238.771 243.834 238.706C243.604 238.642 243.389 238.532 243.202 238.382C243.014 238.233 242.858 238.047 242.741 237.837C242.625 237.626 242.551 237.394 242.524 237.154C242.497 236.914 242.518 236.671 242.584 236.44ZM232.225 235.947C232.701 235.914 233.171 236.073 233.532 236.39C233.892 236.708 234.114 237.156 234.148 237.638C234.181 238.12 234.024 238.596 233.712 238.96C233.399 239.324 232.955 239.548 232.479 239.581C232.003 239.614 231.533 239.455 231.173 239.138C230.812 238.82 230.591 238.371 230.557 237.889C230.523 237.408 230.68 236.932 230.993 236.568C231.306 236.204 231.749 235.98 232.225 235.947Z" fill="white"/>
</g>
</svg>
